<?xml version="1.0"?>
<svg xmlns="http://www.w3.org/2000/svg" viewBox="0 0 50 50" fill="#fff">
    <path style="text-indent:0;text-align:start;line-height:normal;text-transform:none;block-progression:tb;-inkscape-font-specification:Sans" d="M 29 9 C 23.675829 9 19.192775 12.279667 17.1875 16.875 C 16.218844 16.365889 15.168518 16 14 16 C 10.683958 16 7.9632835 18.359837 7.25 21.46875 C 3.0804548 22.675612 0 26.453111 0 31 C 0 36.511334 4.4886661 41 10 41 L 41 41 C 45.958516 41 50 36.958516 50 32 C 50 27.362557 46.420372 23.664744 41.90625 23.1875 C 41.945917 22.795665 42 22.409621 42 22 C 42 14.832484 36.167516 9 29 9 z M 29 11 C 35.086484 11 40 15.913516 40 22 C 40 22.617001 39.947 23.228954 39.84375 23.84375 A 1.0001 1.0001 0 0 0 40.84375 25 C 40.98158 24.9977 41.026432 25 41 25 C 44.877484 25 48 28.122516 48 32 C 48 35.877484 44.877484 39 41 39 L 10 39 C 5.5693339 39 2 35.430666 2 31 C 2 27.165046 4.6954993 23.977325 8.28125 23.1875 A 1.0001 1.0001 0 0 0 9.0625 22.34375 C 9.3835139 19.890704 11.450539 18 14 18 C 15.13549 18 16.156963 18.392484 17 19.03125 A 1.0001 1.0001 0 0 0 18.5625 18.53125 C 20.013817 14.157142 24.127095 11 29 11 z M 33.25 20.3125 L 22.96875 31.53125 L 17.71875 26.28125 L 16.28125 27.71875 L 22.28125 33.71875 L 23.03125 34.4375 L 23.75 33.6875 L 34.75 21.6875 L 33.25 20.3125 z" overflow="visible" font-family="Sans"/>
</svg>
