<?xml version="1.0" encoding="UTF-8" standalone="no"?>
<!DOCTYPE svg PUBLIC "-//W3C//DTD SVG 1.1//EN" "http://www.w3.org/Graphics/SVG/1.1/DTD/svg11.dtd">
<svg width="100%" height="100%" viewBox="0 0 250 250" version="1.1" xmlns="http://www.w3.org/2000/svg" xmlns:xlink="http://www.w3.org/1999/xlink" xml:space="preserve" xmlns:serif="http://www.serif.com/" style="fill-rule:evenodd;clip-rule:evenodd;stroke-linejoin:round;stroke-miterlimit:1.41421;">
    <g id="_Group_" transform="matrix(1,0,0,1,12.025,13.15)">
        <g id="_Group_2_" serif:id="_Group_2">
            <path id="_Compound_Path_" d="M111.8,223.7C50.46,223.673 0,173.19 0,111.85C0,50.491 50.491,0 111.85,0C173.209,0 223.7,50.491 223.7,111.85C223.7,111.867 223.7,111.883 223.7,111.9C223.673,173.24 173.19,223.7 111.85,223.7C111.833,223.7 111.817,223.7 111.8,223.7ZM111.8,8.1C54.912,8.1 8.1,54.912 8.1,111.8C8.1,168.688 54.912,215.5 111.8,215.5C168.688,215.5 215.5,168.688 215.5,111.8C215.445,54.933 168.667,8.155 111.8,8.1Z" style="fill:#6c757d;fill-rule:nonzero;"/>
            <path id="_Path_" d="M89.8,179.1L89.8,175.3C89.8,175.3 102.7,173 104.7,172.6C107.6,171.9 108,169.9 108,168L108,147.7L114.5,147.7L114.5,168C114.5,170 115,171.9 117.8,172.6C119.7,173.1 132.7,175.3 132.7,175.3L132.7,179.1L89.8,179.1Z" style="fill:#6c757d;fill-rule:nonzero;"/>
            <path id="_Path_2_" serif:id="_Path_2" d="M95.2,141.9L77.9,141.9C76.7,139.4 76.1,132.4 76.1,132.4C75.7,127.9 74.1,125.3 66.2,126.4C58,127.5 46.6,129.9 40.6,130.3C34.8,130.8 29,128.6 29,122.7L29,118.2C29,118.19 29,118.18 29,118.17C29,116.332 30.503,114.816 32.34,114.8L140.4,114.8C183.5,114.8 193.6,119.4 193.6,119.4C175.8,134.2 136.4,141.9 95.2,141.9Z" style="fill:#6c757d;fill-rule:nonzero;"/>
            <path id="_Path_3_" serif:id="_Path_3" d="M114.5,109.1L114.5,106.9C114.5,104.2 116.2,102.6 118.5,100.9C121.4,98.8 126.3,95.9 128.5,94.1C134.3,89.2 138.2,83.2 138.2,75C138.2,60.9 131,41.7 131,41.7L91.5,41.7C91.5,41.7 84.3,60.9 84.3,75C84.3,83.2 88.2,89.2 94,94.1C96.2,95.9 101.1,98.8 104,100.9C106.3,102.6 108,104.2 108,106.9L108,109.1L114.5,109.1Z" style="fill:#6c757d;fill-rule:nonzero;"/>
        </g>
    </g>
</svg>
